<?xml version="1.0" encoding="UTF-8"?>
<svg xmlns="http://www.w3.org/2000/svg" xmlns:xlink="http://www.w3.org/1999/xlink" width="37.5pt" height="37.5pt" viewBox="0 0 37.5 37.5" version="1.1">
    <g id="surface4364">
        <path style=" stroke:#000000;fill-rule:nonzero;fill:#ffffff;fill-opacity:1;" d="M 18.5 0 C 16.867188 0 15.539062 1.328125 15.539062 2.960938 C 15.539062 3.699219 15.828125 4.359375 16.28125 4.878906 C 15.699219 5.417969 14.671875 6.492188 13.898438 8.046875 C 13.304688 7.371094 12.652344 6.960938 12.140625 6.707031 C 12.414062 6.257812 12.578125 5.742188 12.578125 5.179688 C 12.578125 3.546875 11.253906 2.21875 9.621094 2.21875 C 7.988281 2.21875 6.660156 3.546875 6.660156 5.179688 C 6.660156 6.558594 7.601562 7.722656 8.878906 8.046875 C 8.964844 11.988281 11.265625 14.058594 15.539062 14.058594 L 21.460938 14.058594 C 25.734375 14.058594 28.035156 11.988281 28.121094 8.046875 C 29.398438 7.722656 30.339844 6.558594 30.339844 5.179688 C 30.339844 3.546875 29.011719 2.21875 27.378906 2.21875 C 25.746094 2.21875 24.421875 3.546875 24.421875 5.179688 C 24.421875 5.742188 24.585938 6.257812 24.859375 6.707031 C 24.347656 6.957031 23.695312 7.371094 23.101562 8.046875 C 22.328125 6.492188 21.300781 5.417969 20.71875 4.878906 C 21.171875 4.359375 21.460938 3.699219 21.460938 2.960938 C 21.460938 1.328125 20.132812 0 18.5 0 Z M 18.5 1.480469 C 19.316406 1.480469 19.980469 2.144531 19.980469 2.960938 C 19.980469 3.773438 19.316406 4.441406 18.5 4.441406 C 17.683594 4.441406 17.019531 3.773438 17.019531 2.960938 C 17.019531 2.144531 17.683594 1.480469 18.5 1.480469 Z M 9.621094 3.699219 C 10.433594 3.699219 11.101562 4.363281 11.101562 5.179688 C 11.101562 5.996094 10.433594 6.660156 9.621094 6.660156 C 8.804688 6.660156 8.140625 5.996094 8.140625 5.179688 C 8.140625 4.363281 8.804688 3.699219 9.621094 3.699219 Z M 27.378906 3.699219 C 28.195312 3.699219 28.859375 4.363281 28.859375 5.179688 C 28.859375 5.996094 28.195312 6.660156 27.378906 6.660156 C 26.566406 6.660156 25.898438 5.996094 25.898438 5.179688 C 25.898438 4.363281 26.566406 3.699219 27.378906 3.699219 Z M 15.425781 15.539062 C 15.417969 15.585938 15.429688 15.632812 15.425781 15.679688 C 15.402344 15.882812 15.359375 16.082031 15.332031 16.28125 L 12.949219 16.28125 C 11.546875 16.28125 10.359375 17.242188 10.359375 18.5 C 10.359375 19.757812 11.546875 20.71875 12.949219 20.71875 L 24.050781 20.71875 C 25.453125 20.71875 26.640625 19.757812 26.640625 18.5 C 26.640625 17.242188 25.453125 16.28125 24.050781 16.28125 L 21.691406 16.28125 C 21.644531 16.058594 21.597656 15.84375 21.574219 15.65625 C 21.570312 15.613281 21.582031 15.582031 21.574219 15.539062 C 21.539062 15.539062 21.496094 15.539062 21.460938 15.539062 L 15.539062 15.539062 C 15.503906 15.539062 15.460938 15.539062 15.425781 15.539062 Z M 12.558594 22.175781 C 12.269531 22.464844 11.996094 22.734375 11.722656 22.984375 C 10.644531 23.984375 9.621094 24.929688 9.621094 26.640625 L 9.25 26.640625 C 7.84375 26.640625 6.660156 27.601562 6.660156 28.859375 C 6.660156 30.117188 7.84375 31.078125 9.25 31.078125 L 27.75 31.078125 C 29.15625 31.078125 30.339844 30.117188 30.339844 28.859375 C 30.339844 27.601562 29.15625 26.640625 27.75 26.640625 L 27.378906 26.640625 C 27.378906 24.929688 26.355469 23.984375 25.277344 22.984375 C 25.003906 22.734375 24.707031 22.464844 24.421875 22.175781 C 24.296875 22.1875 24.179688 22.199219 24.050781 22.199219 L 12.949219 22.199219 C 12.820312 22.199219 12.683594 22.1875 12.558594 22.175781 Z M 7.332031 32.121094 C 6.308594 33.386719 5.59375 34.828125 6.011719 35.914062 C 6.167969 36.320312 6.617188 37 7.910156 37 L 29.089844 37 C 30.335938 37 30.785156 36.332031 30.941406 35.9375 C 31.367188 34.859375 30.652344 33.402344 29.644531 32.121094 C 29.078125 32.394531 28.4375 32.558594 27.75 32.558594 L 9.25 32.558594 C 8.554688 32.558594 7.902344 32.402344 7.332031 32.121094 Z M 7.332031 32.121094 " />
    </g>
</svg>
